<?xml version="1.0" encoding="utf-8"?>
<!-- Svg Vector Icons : http://www.onlinewebfonts.com/icon -->
<!DOCTYPE svg PUBLIC "-//W3C//DTD SVG 1.1//EN" "http://www.w3.org/Graphics/SVG/1.1/DTD/svg11.dtd">
<svg version="1.1" xmlns="http://www.w3.org/2000/svg" xmlns:xlink="http://www.w3.org/1999/xlink" x="0px" y="0px" viewBox="0 0 1000 1000" enable-background="new 0 0 1000 1000" xml:space="preserve">
<metadata> Svg Vector Icons : http://www.onlinewebfonts.com/icon </metadata>
<g><g transform="translate(0.000000,511.000000) scale(0.100000,-0.100000)"><path d="M4669.9,5009.6c-303.3-30.5-623-81.4-824.5-130.3c-706.4-173-1382.3-509-1944.2-967c-209.7-171-580.2-543.6-747.1-755.3C594.2,2450.5,215.5,1524.2,119.9,620.3c-26.5-254.5-26.5-775.6,0-1030.1c75.3-706.4,348.1-1498.4,718.6-2084.7C1538.8-3602,2656.5-4398,3906.5-4677c704.4-156.7,1492.3-156.7,2178.3-2c1807.8,407.2,3237,1811.9,3682.8,3613.6C9873.5-635.8,9900-393.6,9900,105.2c0,327.8-8.1,511-34.6,682c-142.5,918.2-472.3,1681.6-1032.2,2392.1c-169,213.8-576.1,618.9-794,785.8c-696.3,541.5-1498.4,881.5-2371.7,1007.7C5463.9,5001.4,4824.7,5025.8,4669.9,5009.6z M5413,4154.5c899.8-103.8,1697.9-482.5,2357.5-1117.7c1500.4-1441.4,1667.4-3768.3,392.9-5435.7c-246.3-323.7-698.3-732.9-1054.6-950.7c-193.4-120.1-498.8-280.9-535.4-280.9c-12.2,0-20.4,57-20.4,138.4c0,148.6-40.7,454-91.6,696.3c-93.6,456-303.3,912.1-688.1,1492.3c-130.3,199.5-238.2,366.5-238.2,368.5c0,4.1,85.5,48.8,189.3,99.7c549.7,270.8,838.8,792,718.6,1302.9c-22.4,91.6-22.4,136.4-6.1,193.4c14.3,42.8,22.4,215.8,22.4,401.1c-2.1,254.5-12.2,370.5-46.8,527.3c-48.8,232.1-173,610.8-260.6,804.2l-59,132.3l-148.6-152.7c-262.6-266.7-451.9-555.8-533.4-812.3c-20.4-61.1-46.8-109.9-59-105.9c-124.2,28.5-447.9,42.8-602.6,24.4c-254.5-28.5-242.3-30.5-272.8,67.2c-73.3,246.3-305.4,600.6-555.8,846.9l-132.3,130.3l-30.5-59c-50.9-103.8-175.1-439.7-226-618.9c-91.6-325.7-120.1-563.9-103.8-881.5c16.3-350.2,16.3-397,0-657.6c-12.2-156.8-6.1-232.1,18.3-333.9c91.6-352.2,388.8-677.9,775.7-840.8c67.2-28.5,120.1-61.1,118.1-71.3c-2-12.2-109.9-179.2-238.2-374.6c-529.3-802.1-712.5-1309-775.7-2137.6c-8.1-99.7-18.3-179.2-22.4-179.2c-20.4,0-386.8,191.4-511,266.7c-340,207.7-745.1,559.9-1003.7,873.4c-285,346.1-580.2,879.5-720.7,1307C905.7-690.8,832.4-114.6,871.1,384.1c79.4,1015.9,480.5,1893.3,1182.8,2601.8C2933.4,3869.5,4167.1,4299,5413,4154.5z"/></g></g>
</svg>